<?xml version="1.0" encoding="UTF-8" standalone="no"?>
<svg
   xmlns:dc="http://purl.org/dc/elements/1.1/"
   xmlns:cc="http://creativecommons.org/ns#"
   xmlns:rdf="http://www.w3.org/1999/02/22-rdf-syntax-ns#"
   xmlns:svg="http://www.w3.org/2000/svg"
   xmlns="http://www.w3.org/2000/svg"
   viewBox="0 0 1336.0133 237.33333"
   height="237.33333"
   width="1336.0133"
   xml:space="preserve"
   id="svg2"
   version="1.1"><metadata
     id="metadata8"><rdf:RDF><cc:Work
         rdf:about=""><dc:format>image/svg+xml</dc:format><dc:type
           rdf:resource="http://purl.org/dc/dcmitype/StillImage" /></cc:Work></rdf:RDF></metadata><defs
     id="defs6"><clipPath
       id="clipPath18"
       clipPathUnits="userSpaceOnUse"><path
         id="path16"
         d="M 67.84,27.12 H 606.887 V 142.558 H 67.84 Z" /></clipPath></defs><g
     transform="matrix(1.3333333,0,0,-1.3333333,0,237.33333)"
     id="g10"><g
       id="g12"><g
         clip-path="url(#clipPath18)"
         id="g14"><g
           transform="translate(69.9932,64.9805)"
           id="g20"><path
             id="path22"
             style="fill:#ce311e;fill-opacity:1;fill-rule:nonzero;stroke:none"
             d="m 0,0 h 15 v 24.613 c 0,2.394 0.247,4.665 0.739,6.814 0.493,2.147 1.321,4.014 2.483,5.598 1.162,1.585 2.694,2.835 4.595,3.75 1.902,0.916 4.225,1.373 6.972,1.373 0.915,0 1.866,-0.052 2.852,-0.158 0.986,-0.106 1.831,-0.229 2.536,-0.37 v 13.944 c -1.057,0.352 -2.149,0.528 -3.276,0.528 -1.831,0 -3.643,-0.281 -5.44,-0.845 -1.795,-0.563 -3.468,-1.355 -5.018,-2.376 -1.548,-1.022 -2.922,-2.254 -4.119,-3.698 -1.197,-1.444 -2.148,-3.01 -2.852,-4.7 h -0.211 v 10.14 H 0 Z m 87.861,23.662 c 0.282,4.226 -0.07,8.275 -1.056,12.149 -0.987,3.873 -2.588,7.324 -4.807,10.352 -2.218,3.028 -5.053,5.44 -8.504,7.236 -3.45,1.795 -7.5,2.693 -12.147,2.693 -4.156,0 -7.941,-0.739 -11.357,-2.218 -3.415,-1.479 -6.355,-3.503 -8.82,-6.074 -2.465,-2.571 -4.366,-5.616 -5.704,-9.137 -1.338,-3.521 -2.007,-7.325 -2.007,-11.409 0,-4.226 0.651,-8.099 1.954,-11.62 1.303,-3.521 3.151,-6.549 5.546,-9.085 2.395,-2.535 5.316,-4.507 8.768,-5.915 3.451,-1.408 7.324,-2.113 11.62,-2.113 6.197,0 11.478,1.444 15.844,4.331 4.367,2.888 7.607,7.571 9.719,14.05 H 73.706 c -0.493,-1.691 -1.831,-3.293 -4.015,-4.807 -2.182,-1.514 -4.789,-2.271 -7.816,-2.271 -4.226,0 -7.465,1.109 -9.719,3.328 -2.254,2.218 -3.486,5.722 -3.697,10.51 z m -39.402,9.507 c 0.07,1.057 0.299,2.254 0.687,3.592 0.387,1.338 1.056,2.606 2.006,3.803 0.952,1.197 2.219,2.201 3.803,3.01 1.585,0.81 3.574,1.216 5.969,1.216 3.662,0 6.39,-0.986 8.186,-2.958 1.796,-1.972 3.046,-4.86 3.75,-8.663 z M 92.164,0 h 15.001 V 54.613 H 92.164 Z m 15.001,75.424 H 92.164 V 63.065 h 15.001 z M 114.004,0 h 15 v 28.627 c 0,5.563 0.915,9.56 2.746,11.99 1.831,2.429 4.789,3.644 8.874,3.644 3.521,0 6.003,-1.109 7.447,-3.327 1.444,-2.219 2.165,-5.581 2.165,-10.088 V 0 h 15 v 33.592 c 0,3.38 -0.299,6.461 -0.897,9.243 -0.599,2.782 -1.638,5.141 -3.116,7.078 -1.48,1.936 -3.504,3.45 -6.075,4.542 -2.57,1.092 -5.862,1.637 -9.877,1.637 -3.168,0 -6.267,-0.739 -9.295,-2.218 -3.029,-1.479 -5.494,-3.768 -7.395,-6.866 h -0.316 v 7.605 h -14.261 z m 96.628,0 h 14.262 V 75.424 H 209.893 V 47.958 h -0.211 c -1.691,2.676 -3.996,4.701 -6.919,6.075 -2.923,1.373 -6.004,2.059 -9.243,2.059 -4.015,0 -7.536,-0.792 -10.564,-2.376 -3.028,-1.585 -5.546,-3.68 -7.553,-6.286 -2.007,-2.605 -3.521,-5.616 -4.543,-9.032 -1.02,-3.415 -1.531,-6.954 -1.531,-10.616 0,-3.803 0.511,-7.465 1.531,-10.986 1.022,-3.521 2.536,-6.637 4.543,-9.349 2.007,-2.711 4.542,-4.877 7.606,-6.496 3.063,-1.62 6.673,-2.43 10.827,-2.43 3.521,0 6.726,0.669 9.613,2.007 2.888,1.338 5.211,3.486 6.972,6.444 h 0.211 z m -0.211,27.465 c 0,-2.254 -0.211,-4.437 -0.634,-6.549 -0.423,-2.113 -1.127,-3.997 -2.112,-5.652 -0.987,-1.655 -2.307,-2.975 -3.962,-3.961 -1.654,-0.986 -3.715,-1.479 -6.18,-1.479 -2.323,0 -4.313,0.51 -5.968,1.532 -1.655,1.021 -3.028,2.359 -4.12,4.014 -1.091,1.655 -1.883,3.539 -2.377,5.651 -0.493,2.113 -0.739,4.226 -0.739,6.338 0,2.254 0.229,4.42 0.687,6.497 0.458,2.078 1.197,3.926 2.218,5.546 1.021,1.62 2.376,2.923 4.067,3.909 1.69,0.985 3.767,1.479 6.232,1.479 2.395,0 4.419,-0.494 6.074,-1.479 1.656,-0.986 2.994,-2.271 4.015,-3.856 1.021,-1.585 1.742,-3.434 2.165,-5.546 0.423,-2.113 0.634,-4.261 0.634,-6.444 m 72.016,27.148 h -15 V 25.986 c 0,-5.563 -0.916,-9.56 -2.747,-11.989 -1.831,-2.43 -4.789,-3.645 -8.874,-3.645 -3.52,0 -6.003,1.109 -7.447,3.328 -1.443,2.218 -2.165,5.581 -2.165,10.088 v 30.845 h -15 V 21.021 c 0,-3.38 0.299,-6.461 0.898,-9.243 0.598,-2.781 1.637,-5.141 3.116,-7.077 1.479,-1.937 3.504,-3.451 6.074,-4.543 2.57,-1.091 5.862,-1.637 9.877,-1.637 3.169,0 6.268,0.739 9.296,2.219 3.028,1.478 5.493,3.767 7.394,6.865 h 0.317 V 0 h 14.261 z m 3.775,-36.866 c 0.141,-3.592 0.969,-6.62 2.482,-9.085 1.515,-2.465 3.452,-4.454 5.811,-5.968 2.358,-1.514 5.053,-2.588 8.081,-3.222 3.028,-0.634 6.126,-0.951 9.296,-0.951 3.098,0 6.144,0.317 9.137,0.951 2.993,0.634 5.651,1.69 7.975,3.169 2.324,1.479 4.208,3.433 5.652,5.862 1.444,2.43 2.166,5.441 2.166,9.033 0,2.535 -0.494,4.665 -1.48,6.39 -0.985,1.726 -2.288,3.17 -3.908,4.331 -1.619,1.162 -3.468,2.096 -5.546,2.8 -2.077,0.704 -4.208,1.303 -6.391,1.796 -2.113,0.493 -4.19,0.95 -6.232,1.373 -2.042,0.422 -3.856,0.898 -5.441,1.426 -1.584,0.528 -2.869,1.215 -3.855,2.06 -0.986,0.845 -1.48,1.936 -1.48,3.274 0,1.127 0.283,2.025 0.846,2.694 0.564,0.669 1.25,1.18 2.06,1.532 0.81,0.352 1.708,0.581 2.693,0.686 0.986,0.106 1.902,0.159 2.747,0.159 2.676,0 5,-0.511 6.972,-1.532 1.972,-1.021 3.063,-2.975 3.274,-5.862 h 14.261 c -0.281,3.38 -1.144,6.179 -2.588,8.398 -1.443,2.218 -3.257,3.996 -5.439,5.334 -2.184,1.338 -4.666,2.289 -7.448,2.852 -2.782,0.564 -5.652,0.845 -8.609,0.845 -2.958,0 -5.846,-0.264 -8.662,-0.792 -2.817,-0.528 -5.353,-1.444 -7.607,-2.746 -2.252,-1.303 -4.066,-3.099 -5.439,-5.388 -1.374,-2.289 -2.061,-5.158 -2.061,-8.609 0,-2.394 0.494,-4.419 1.48,-6.074 0.985,-1.655 2.288,-3.028 3.908,-4.12 1.62,-1.092 3.469,-1.972 5.546,-2.641 2.077,-0.669 4.208,-1.25 6.391,-1.743 2.676,-0.563 5.07,-1.109 7.183,-1.637 2.113,-0.528 3.891,-1.11 5.335,-1.743 1.444,-0.634 2.553,-1.356 3.327,-2.165 0.775,-0.81 1.163,-1.779 1.163,-2.906 0,-1.338 -0.318,-2.447 -0.952,-3.327 -0.633,-0.88 -1.425,-1.585 -2.377,-2.113 -0.95,-0.528 -2.006,-0.915 -3.169,-1.162 -1.162,-0.246 -2.271,-0.369 -3.327,-0.369 -1.479,0 -2.905,0.175 -4.278,0.528 -1.373,0.352 -2.588,0.897 -3.645,1.637 -1.056,0.739 -1.918,1.69 -2.587,2.852 -0.669,1.162 -1.004,2.553 -1.004,4.173 z m 73.39,53.24 H 344.601 V 54.613 h -9.084 V 44.578 h 9.084 V 12.359 c 0,-2.746 0.458,-4.964 1.373,-6.654 0.916,-1.691 2.166,-3.011 3.75,-3.962 1.585,-0.951 3.416,-1.585 5.493,-1.902 2.078,-0.317 4.278,-0.475 6.602,-0.475 1.479,0 2.993,0.035 4.542,0.106 1.55,0.07 2.958,0.211 4.226,0.422 V 11.62 c -1.408,-0.282 -2.958,-0.423 -4.648,-0.423 -2.535,0 -4.225,0.423 -5.07,1.268 -0.846,0.845 -1.267,2.535 -1.267,5.071 v 27.042 h 10.985 V 54.613 H 359.602 Z M 372.778,0 h 15 v 24.613 c 0,2.394 0.246,4.665 0.74,6.814 0.493,2.147 1.32,4.014 2.482,5.598 1.162,1.585 2.694,2.835 4.596,3.75 1.901,0.916 4.224,1.373 6.971,1.373 0.915,0 1.867,-0.052 2.852,-0.158 0.986,-0.106 1.831,-0.229 2.536,-0.37 v 13.944 c -1.057,0.352 -2.148,0.528 -3.275,0.528 -1.831,0 -3.644,-0.281 -5.441,-0.845 -1.795,-0.563 -3.468,-1.355 -5.017,-2.376 -1.549,-1.022 -2.922,-2.254 -4.119,-3.698 -1.198,-1.444 -2.149,-3.01 -2.853,-4.7 h -0.211 v 10.14 h -14.261 z m 36.523,0 h 15 v 54.613 h -15 z m 15,75.424 h -15 V 63.065 h 15 z m 40.853,-54.297 c 0,-0.845 -0.088,-1.972 -0.264,-3.38 -0.176,-1.409 -0.652,-2.8 -1.426,-4.173 -0.775,-1.373 -1.972,-2.553 -3.592,-3.538 -1.62,-0.987 -3.908,-1.479 -6.866,-1.479 -1.197,0 -2.36,0.105 -3.486,0.317 -1.126,0.211 -2.113,0.581 -2.958,1.108 -0.845,0.529 -1.514,1.233 -2.007,2.113 -0.493,0.881 -0.74,2.025 -0.74,3.433 0,1.338 0.247,2.483 0.74,3.433 0.493,0.951 1.144,1.726 1.955,2.325 0.809,0.598 1.742,1.073 2.799,1.425 1.056,0.353 2.183,0.634 3.38,0.846 1.126,0.211 2.306,0.387 3.539,0.528 1.232,0.141 2.394,0.317 3.486,0.528 1.092,0.211 2.112,0.475 3.063,0.792 0.952,0.317 1.744,0.757 2.377,1.321 z m -19.648,16.691 c 0.281,2.957 1.285,5.07 3.011,6.338 1.725,1.267 4.031,1.901 6.919,1.901 1.337,0 2.587,-0.088 3.75,-0.264 1.162,-0.176 2.183,-0.528 3.063,-1.056 0.88,-0.529 1.585,-1.268 2.112,-2.219 0.529,-0.951 0.793,-2.236 0.793,-3.855 0,-1.55 -0.493,-2.729 -1.479,-3.539 -0.986,-0.81 -2.306,-1.426 -3.961,-1.849 -1.655,-0.422 -3.539,-0.739 -5.652,-0.951 -2.113,-0.211 -4.331,-0.492 -6.655,-0.845 -2.324,-0.352 -4.595,-0.827 -6.813,-1.426 -2.218,-0.598 -4.208,-1.496 -5.969,-2.694 -1.76,-1.197 -3.169,-2.799 -4.225,-4.806 -1.056,-2.007 -1.585,-4.56 -1.585,-7.658 0,-2.817 0.476,-5.247 1.426,-7.29 0.951,-2.042 2.272,-3.732 3.962,-5.07 1.69,-1.338 3.662,-2.341 5.915,-3.011 2.254,-0.669 4.684,-1.003 7.289,-1.003 3.381,0 6.691,0.511 9.93,1.532 3.239,1.021 6.057,2.764 8.451,5.229 0.07,-0.916 0.193,-1.813 0.369,-2.694 0.177,-0.88 0.405,-1.743 0.687,-2.588 h 15.212 c -0.704,1.127 -1.198,2.817 -1.479,5.071 -0.282,2.253 -0.423,4.612 -0.423,7.077 v 28.416 c 0,3.24 -0.739,5.88 -2.218,7.923 -1.479,2.042 -3.38,3.627 -5.705,4.753 -2.324,1.127 -4.894,1.884 -7.71,2.271 -2.818,0.387 -5.599,0.581 -8.346,0.581 -3.099,0 -6.127,-0.299 -9.084,-0.898 -2.958,-0.598 -5.634,-1.602 -8.029,-3.01 -2.394,-1.409 -4.366,-3.275 -5.916,-5.599 -1.549,-2.324 -2.429,-5.247 -2.64,-8.767 z m 38.635,-20.071 c 0.141,-3.592 0.968,-6.62 2.482,-9.085 1.515,-2.465 3.451,-4.454 5.811,-5.968 2.358,-1.514 5.052,-2.588 8.081,-3.222 3.028,-0.634 6.127,-0.951 9.296,-0.951 3.098,0 6.144,0.317 9.137,0.951 2.993,0.634 5.652,1.69 7.976,3.169 2.323,1.479 4.207,3.433 5.651,5.862 1.444,2.43 2.165,5.441 2.165,9.033 0,2.535 -0.493,4.665 -1.478,6.39 -0.987,1.726 -2.289,3.17 -3.909,4.331 -1.62,1.162 -3.468,2.096 -5.546,2.8 -2.078,0.704 -4.207,1.303 -6.391,1.796 -2.112,0.493 -4.19,0.95 -6.232,1.373 -2.042,0.422 -3.856,0.898 -5.441,1.426 -1.584,0.528 -2.869,1.215 -3.855,2.06 -0.987,0.845 -1.48,1.936 -1.48,3.274 0,1.127 0.282,2.025 0.846,2.694 0.563,0.669 1.25,1.18 2.059,1.532 0.811,0.352 1.708,0.581 2.695,0.686 0.985,0.106 1.901,0.159 2.746,0.159 2.676,0 5,-0.511 6.972,-1.532 1.972,-1.021 3.063,-2.975 3.275,-5.862 h 14.261 c -0.283,3.38 -1.145,6.179 -2.588,8.398 -1.445,2.218 -3.258,3.996 -5.441,5.334 -2.183,1.338 -4.666,2.289 -7.447,2.852 -2.782,0.564 -5.652,0.845 -8.609,0.845 -2.958,0 -5.846,-0.264 -8.662,-0.792 -2.818,-0.528 -5.353,-1.444 -7.606,-2.746 -2.254,-1.303 -4.067,-3.099 -5.44,-5.388 -1.374,-2.289 -2.061,-5.158 -2.061,-8.609 0,-2.394 0.493,-4.419 1.48,-6.074 0.985,-1.655 2.288,-3.028 3.908,-4.12 1.62,-1.092 3.469,-1.972 5.546,-2.641 2.077,-0.669 4.208,-1.25 6.39,-1.743 2.677,-0.563 5.071,-1.109 7.184,-1.637 2.112,-0.528 3.891,-1.11 5.335,-1.743 1.443,-0.634 2.553,-1.356 3.327,-2.165 0.775,-0.81 1.162,-1.779 1.162,-2.906 0,-1.338 -0.317,-2.447 -0.951,-3.327 -0.634,-0.88 -1.426,-1.585 -2.377,-2.113 -0.95,-0.528 -2.007,-0.915 -3.169,-1.162 -1.162,-0.246 -2.27,-0.369 -3.327,-0.369 -1.479,0 -2.905,0.175 -4.278,0.528 -1.373,0.352 -2.588,0.897 -3.645,1.637 -1.056,0.739 -1.919,1.69 -2.588,2.852 -0.669,1.162 -1.004,2.553 -1.004,4.173 z" /></g><g
           transform="translate(368.6553,42.9648)"
           id="g24"><path
             id="path26"
             style="fill:#121d37;fill-opacity:1;fill-rule:nonzero;stroke:none"
             d="m 0,0 c 0,-1.06 0.13,-2.046 0.39,-2.959 0.258,-0.914 0.636,-1.703 1.132,-2.368 0.497,-0.666 1.117,-1.19 1.861,-1.573 0.744,-0.384 1.59,-0.575 2.536,-0.575 0.857,0 1.646,0.152 2.368,0.456 0.722,0.305 1.353,0.75 1.895,1.336 0.541,0.587 0.964,1.303 1.268,2.148 0.304,0.846 0.456,1.821 0.456,2.926 0.045,1.105 -0.045,2.137 -0.27,3.095 C 11.41,3.444 11.05,4.285 10.554,5.006 10.058,5.728 9.42,6.297 8.643,6.714 7.864,7.131 6.957,7.34 5.919,7.34 4.995,7.34 4.166,7.143 3.434,6.748 2.7,6.354 2.08,5.824 1.573,5.158 1.065,4.493 0.677,3.715 0.406,2.825 0.136,1.934 0,0.992 0,0 M 0,-8.828 H -2.029 V 15.526 H 0 v -9.64 c 0.654,1.082 1.55,1.9 2.689,2.452 1.139,0.552 2.329,0.829 3.569,0.829 1.33,0 2.486,-0.254 3.467,-0.761 0.981,-0.508 1.793,-1.184 2.435,-2.03 0.643,-0.846 1.122,-1.832 1.438,-2.959 0.315,-1.128 0.473,-2.301 0.473,-3.519 0,-1.285 -0.146,-2.491 -0.439,-3.619 C 13.339,-4.848 12.87,-5.823 12.228,-6.646 11.585,-7.47 10.768,-8.118 9.775,-8.591 8.783,-9.065 7.577,-9.302 6.156,-9.302 c -0.563,0 -1.138,0.079 -1.724,0.237 -0.587,0.158 -1.157,0.383 -1.709,0.676 -0.552,0.294 -1.06,0.66 -1.522,1.1 -0.462,0.44 -0.84,0.953 -1.134,1.539 H 0 Z M 30.649,8.693 h 2.03 V -8.828 h -2.03 v 2.435 c -0.27,-0.315 -0.575,-0.643 -0.913,-0.981 -0.339,-0.338 -0.727,-0.648 -1.167,-0.93 -0.44,-0.282 -0.953,-0.518 -1.539,-0.71 -0.586,-0.192 -1.262,-0.288 -2.03,-0.288 -1.172,0 -2.153,0.164 -2.942,0.491 -0.789,0.327 -1.426,0.783 -1.912,1.37 -0.484,0.586 -0.834,1.268 -1.047,2.046 -0.215,0.778 -0.323,1.629 -0.323,2.554 V 8.693 h 2.031 v -11.5 c 0,-1.511 0.349,-2.667 1.047,-3.467 0.7,-0.801 1.85,-1.201 3.451,-1.201 0.835,0 1.585,0.163 2.25,0.49 0.665,0.327 1.222,0.784 1.674,1.37 0.451,0.587 0.8,1.285 1.048,2.097 0.248,0.812 0.372,1.703 0.372,2.672 z M 50.644,1.15 c 0,0.857 -0.119,1.663 -0.355,2.419 -0.237,0.755 -0.587,1.409 -1.049,1.961 -0.463,0.553 -1.043,0.992 -1.742,1.32 -0.699,0.327 -1.5,0.49 -2.401,0.49 -0.903,0 -1.698,-0.169 -2.385,-0.507 C 42.024,6.495 41.438,6.043 40.953,5.48 40.468,4.916 40.079,4.262 39.786,3.518 39.493,2.774 39.302,1.985 39.211,1.15 Z M 39.211,-0.541 c 0,-0.947 0.124,-1.843 0.372,-2.689 0.248,-0.846 0.614,-1.579 1.1,-2.199 0.484,-0.62 1.098,-1.116 1.842,-1.488 0.746,-0.372 1.602,-0.558 2.572,-0.558 1.33,0 2.468,0.35 3.416,1.048 0.947,0.699 1.579,1.692 1.894,2.977 h 2.266 c -0.248,-0.835 -0.574,-1.607 -0.981,-2.317 -0.406,-0.711 -0.913,-1.33 -1.522,-1.86 -0.608,-0.53 -1.33,-0.942 -2.165,-1.235 -0.834,-0.293 -1.804,-0.44 -2.908,-0.44 -1.399,0 -2.605,0.237 -3.619,0.711 -1.015,0.473 -1.85,1.121 -2.503,1.945 -0.655,0.823 -1.139,1.792 -1.455,2.909 -0.316,1.115 -0.474,2.317 -0.474,3.602 0,1.285 0.186,2.491 0.558,3.619 0.373,1.127 0.903,2.114 1.59,2.96 0.688,0.846 1.528,1.511 2.52,1.995 0.992,0.485 2.12,0.728 3.383,0.728 2.412,0 4.306,-0.829 5.682,-2.486 1.375,-1.658 2.052,-4.065 2.03,-7.222 z m 19.961,-8.287 h -2.03 V 8.693 h 2.03 V 6.258 c 0.811,0.856 1.651,1.555 2.519,2.097 0.869,0.541 1.912,0.812 3.129,0.812 1.082,0 2.086,-0.187 3.011,-0.558 0.924,-0.373 1.702,-1.021 2.334,-1.945 0.428,-0.632 0.682,-1.28 0.761,-1.945 0.079,-0.666 0.118,-1.359 0.118,-2.08 V -8.828 H 69.015 V 2.604 c 0,1.579 -0.35,2.763 -1.049,3.552 C 67.267,6.946 66.105,7.34 64.482,7.34 63.851,7.34 63.275,7.244 62.757,7.053 62.238,6.861 61.771,6.607 61.354,6.292 60.937,5.976 60.581,5.615 60.288,5.209 59.995,4.803 59.77,4.375 59.611,3.924 59.408,3.36 59.284,2.819 59.239,2.3 59.194,1.782 59.172,1.218 59.172,0.609 Z m 28.619,9.2 C 86.935,0.011 86.066,-0.225 85.187,-0.338 84.308,-0.451 83.428,-0.541 82.548,-0.609 80.992,-0.722 79.78,-1.071 78.912,-1.657 78.044,-2.244 77.61,-3.134 77.61,-4.33 c 0,-0.541 0.107,-1.009 0.322,-1.403 0.214,-0.395 0.496,-0.722 0.845,-0.981 0.35,-0.26 0.755,-0.451 1.217,-0.575 0.463,-0.124 0.931,-0.186 1.404,-0.186 0.812,0 1.601,0.101 2.368,0.304 0.767,0.203 1.449,0.513 2.047,0.93 0.597,0.418 1.077,0.948 1.437,1.59 0.361,0.643 0.541,1.404 0.541,2.283 z m -3.416,1.015 c 0.383,0.045 0.84,0.113 1.37,0.203 0.529,0.09 0.964,0.214 1.302,0.372 0.339,0.158 0.547,0.423 0.626,0.795 0.079,0.372 0.118,0.716 0.118,1.032 0,1.037 -0.332,1.888 -0.997,2.553 C 86.128,7.007 85.006,7.34 83.428,7.34 82.729,7.34 82.086,7.278 81.5,7.154 80.913,7.03 80.4,6.815 79.961,6.511 79.521,6.207 79.16,5.801 78.879,5.294 78.597,4.786 78.41,4.149 78.32,3.383 h -2.063 c 0.067,1.037 0.305,1.922 0.711,2.655 0.405,0.733 0.929,1.33 1.572,1.793 0.643,0.462 1.387,0.8 2.232,1.014 0.846,0.215 1.743,0.322 2.69,0.322 0.879,0 1.708,-0.096 2.486,-0.288 0.778,-0.191 1.454,-0.496 2.03,-0.913 0.575,-0.417 1.025,-0.975 1.352,-1.674 0.327,-0.699 0.491,-1.556 0.491,-2.571 v -9.539 c 0,-0.789 0.141,-1.29 0.422,-1.505 0.282,-0.214 0.852,-0.163 1.709,0.152 V -8.76 c -0.158,-0.046 -0.389,-0.113 -0.693,-0.203 -0.305,-0.091 -0.604,-0.136 -0.897,-0.136 -0.316,0 -0.62,0.034 -0.914,0.101 -0.338,0.046 -0.608,0.153 -0.811,0.322 -0.203,0.169 -0.366,0.372 -0.491,0.609 -0.124,0.236 -0.208,0.496 -0.253,0.778 -0.045,0.282 -0.068,0.581 -0.068,0.896 -0.857,-0.947 -1.838,-1.669 -2.942,-2.165 -1.106,-0.496 -2.301,-0.744 -3.586,-0.744 -0.767,0 -1.505,0.102 -2.215,0.304 -0.711,0.204 -1.337,0.519 -1.878,0.948 -0.541,0.428 -0.97,0.953 -1.285,1.572 -0.315,0.621 -0.474,1.359 -0.474,2.216 0,2.977 2.041,4.736 6.122,5.277 z m 12.316,-4.736 c 0.316,-1.51 0.885,-2.576 1.708,-3.196 0.824,-0.62 2.001,-0.93 3.535,-0.93 0.745,0 1.387,0.09 1.928,0.27 0.541,0.181 0.987,0.423 1.336,0.727 0.35,0.305 0.615,0.649 0.795,1.033 0.181,0.383 0.271,0.789 0.271,1.217 0,0.857 -0.277,1.494 -0.829,1.911 -0.552,0.417 -1.247,0.744 -2.081,0.981 -0.833,0.237 -1.736,0.44 -2.706,0.609 -0.969,0.169 -1.871,0.423 -2.706,0.761 -0.834,0.338 -1.527,0.823 -2.08,1.454 -0.552,0.632 -0.828,1.522 -0.828,2.673 0,1.465 0.535,2.666 1.607,3.602 1.071,0.936 2.587,1.404 4.548,1.404 1.895,0 3.434,-0.423 4.618,-1.269 1.184,-0.845 1.9,-2.26 2.148,-4.245 h -2.063 c -0.181,1.353 -0.694,2.306 -1.539,2.858 -0.846,0.553 -1.912,0.829 -3.197,0.829 -1.285,0 -2.266,-0.276 -2.943,-0.829 -0.676,-0.552 -1.015,-1.28 -1.015,-2.181 0,-0.789 0.277,-1.392 0.829,-1.81 0.553,-0.417 1.246,-0.755 2.08,-1.015 0.834,-0.259 1.737,-0.49 2.706,-0.693 0.97,-0.203 1.873,-0.49 2.707,-0.863 0.834,-0.371 1.527,-0.873 2.08,-1.505 0.552,-0.631 0.829,-1.511 0.829,-2.638 0,-0.834 -0.181,-1.573 -0.542,-2.216 -0.361,-0.642 -0.857,-1.178 -1.489,-1.606 -0.63,-0.429 -1.38,-0.75 -2.249,-0.964 -0.868,-0.215 -1.82,-0.322 -2.858,-0.322 -1.037,0 -1.956,0.153 -2.757,0.457 -0.8,0.304 -1.482,0.727 -2.046,1.268 -0.563,0.541 -1.004,1.173 -1.319,1.894 -0.315,0.722 -0.496,1.5 -0.541,2.334 z m 26.891,-5.479 h -2.029 V 8.693 h 2.029 V 6.055 h 0.067 c 0.519,1.014 1.263,1.787 2.233,2.317 0.97,0.53 2.029,0.795 3.18,0.795 0.811,0 1.499,-0.091 2.063,-0.271 0.563,-0.181 1.043,-0.423 1.437,-0.728 0.395,-0.304 0.722,-0.659 0.981,-1.064 0.26,-0.407 0.479,-0.846 0.66,-1.32 0.586,1.15 1.369,2.002 2.351,2.554 0.98,0.552 2.102,0.829 3.365,0.829 1.195,0 2.148,-0.198 2.858,-0.592 0.71,-0.395 1.257,-0.914 1.641,-1.556 0.384,-0.643 0.637,-1.381 0.761,-2.216 0.124,-0.834 0.186,-1.691 0.186,-2.57 V -8.828 h -2.029 V 3.281 c 0,1.263 -0.266,2.255 -0.795,2.977 -0.53,0.721 -1.517,1.082 -2.96,1.082 -0.744,0 -1.46,-0.163 -2.148,-0.49 -0.688,-0.328 -1.291,-0.829 -1.81,-1.505 -0.225,-0.294 -0.411,-0.638 -0.558,-1.032 -0.146,-0.395 -0.264,-0.807 -0.355,-1.235 -0.09,-0.428 -0.152,-0.857 -0.186,-1.285 -0.034,-0.429 -0.05,-0.823 -0.05,-1.184 v -9.437 h -2.03 V 3.281 c 0,1.263 -0.265,2.255 -0.795,2.977 -0.53,0.721 -1.516,1.082 -2.96,1.082 -0.744,0 -1.46,-0.163 -2.148,-0.49 -0.687,-0.328 -1.29,-0.829 -1.809,-1.505 C 124.507,5.051 124.32,4.707 124.174,4.313 124.027,3.918 123.909,3.506 123.818,3.078 123.729,2.65 123.667,2.221 123.633,1.793 123.599,1.364 123.582,0.97 123.582,0.609 Z m 38.26,9.2 c -0.857,-0.361 -1.726,-0.597 -2.605,-0.71 -0.88,-0.113 -1.758,-0.203 -2.638,-0.271 -1.556,-0.113 -2.768,-0.462 -3.636,-1.048 -0.868,-0.587 -1.302,-1.477 -1.302,-2.673 0,-0.541 0.107,-1.009 0.32,-1.403 0.215,-0.395 0.498,-0.722 0.847,-0.981 0.349,-0.26 0.755,-0.451 1.217,-0.575 0.463,-0.124 0.931,-0.186 1.404,-0.186 0.812,0 1.601,0.101 2.367,0.304 0.767,0.203 1.45,0.513 2.047,0.93 0.598,0.418 1.076,0.948 1.438,1.59 0.36,0.643 0.541,1.404 0.541,2.283 z m -3.416,1.015 c 0.383,0.045 0.84,0.113 1.37,0.203 0.529,0.09 0.964,0.214 1.302,0.372 0.338,0.158 0.547,0.423 0.626,0.795 0.079,0.372 0.118,0.716 0.118,1.032 0,1.037 -0.332,1.888 -0.998,2.553 -0.665,0.665 -1.787,0.998 -3.365,0.998 -0.7,0 -1.342,-0.062 -1.928,-0.186 -0.587,-0.124 -1.1,-0.339 -1.539,-0.643 -0.441,-0.304 -0.801,-0.71 -1.083,-1.217 -0.282,-0.508 -0.468,-1.145 -0.558,-1.911 h -2.063 c 0.067,1.037 0.304,1.922 0.711,2.655 0.405,0.733 0.929,1.33 1.572,1.793 0.642,0.462 1.387,0.8 2.232,1.014 0.846,0.215 1.742,0.322 2.689,0.322 0.88,0 1.709,-0.096 2.486,-0.288 0.778,-0.191 1.455,-0.496 2.029,-0.913 0.576,-0.417 1.027,-0.975 1.354,-1.674 0.327,-0.699 0.49,-1.556 0.49,-2.571 v -9.539 c 0,-0.789 0.142,-1.29 0.423,-1.505 0.282,-0.214 0.852,-0.163 1.708,0.152 V -8.76 c -0.157,-0.046 -0.389,-0.113 -0.693,-0.203 -0.304,-0.091 -0.603,-0.136 -0.897,-0.136 -0.315,0 -0.62,0.034 -0.913,0.101 -0.338,0.046 -0.608,0.153 -0.812,0.322 -0.203,0.169 -0.366,0.372 -0.49,0.609 -0.124,0.236 -0.209,0.496 -0.254,0.778 -0.045,0.282 -0.067,0.581 -0.067,0.896 -0.857,-0.947 -1.838,-1.669 -2.943,-2.165 -1.105,-0.496 -2.3,-0.744 -3.585,-0.744 -0.767,0 -1.506,0.102 -2.216,0.304 -0.71,0.204 -1.336,0.519 -1.877,0.948 -0.541,0.428 -0.97,0.953 -1.285,1.572 -0.317,0.621 -0.474,1.359 -0.474,2.216 0,2.977 2.04,4.736 6.122,5.277 z m 13.262,-10.215 h -2.029 V 8.693 h 2.029 V 5.412 h 0.069 c 0.563,1.398 1.291,2.374 2.181,2.926 0.891,0.552 2.069,0.829 3.535,0.829 V 6.968 c -1.15,0.023 -2.097,-0.158 -2.841,-0.541 -0.744,-0.384 -1.336,-0.902 -1.777,-1.556 -0.439,-0.654 -0.744,-1.427 -0.913,-2.317 -0.169,-0.891 -0.254,-1.821 -0.254,-2.791 z M 193.003,3.18 c -0.361,1.308 -0.982,2.328 -1.86,3.061 -0.88,0.733 -1.997,1.099 -3.349,1.099 -1.037,0 -1.929,-0.214 -2.673,-0.643 -0.744,-0.428 -1.352,-0.997 -1.826,-1.708 -0.474,-0.71 -0.823,-1.51 -1.049,-2.401 -0.225,-0.891 -0.338,-1.787 -0.338,-2.69 0,-0.924 0.108,-1.826 0.321,-2.705 0.214,-0.88 0.558,-1.669 1.032,-2.368 0.473,-0.699 1.083,-1.257 1.827,-1.674 0.744,-0.418 1.645,-0.626 2.706,-0.626 1.511,0 2.723,0.417 3.636,1.251 0.913,0.834 1.494,1.985 1.742,3.451 h 2.165 c -0.181,-0.97 -0.469,-1.855 -0.863,-2.656 -0.395,-0.8 -0.902,-1.488 -1.522,-2.063 -0.62,-0.575 -1.359,-1.02 -2.216,-1.336 -0.857,-0.316 -1.838,-0.474 -2.942,-0.474 -1.398,0 -2.605,0.237 -3.619,0.711 -1.016,0.473 -1.85,1.121 -2.504,1.945 -0.653,0.823 -1.139,1.798 -1.454,2.925 -0.316,1.128 -0.474,2.334 -0.474,3.619 0,1.218 0.175,2.385 0.525,3.501 0.349,1.117 0.862,2.103 1.539,2.96 0.676,0.857 1.516,1.539 2.519,2.047 1.004,0.507 2.159,0.761 3.468,0.761 2.029,0 3.67,-0.485 4.921,-1.455 1.252,-0.969 2.035,-2.481 2.35,-4.532 z m 18.235,-2.808 c -0.857,-0.361 -1.725,-0.597 -2.604,-0.71 -0.88,-0.113 -1.759,-0.203 -2.639,-0.271 -1.556,-0.113 -2.767,-0.462 -3.636,-1.048 -0.868,-0.587 -1.302,-1.477 -1.302,-2.673 0,-0.541 0.107,-1.009 0.321,-1.403 0.215,-0.395 0.496,-0.722 0.846,-0.981 0.349,-0.26 0.755,-0.451 1.217,-0.575 0.462,-0.124 0.931,-0.186 1.404,-0.186 0.812,0 1.601,0.101 2.368,0.304 0.766,0.203 1.449,0.513 2.046,0.93 0.598,0.418 1.077,0.948 1.438,1.59 0.361,0.643 0.541,1.404 0.541,2.283 z m -3.417,1.015 c 0.384,0.045 0.841,0.113 1.37,0.203 0.531,0.09 0.965,0.214 1.303,0.372 0.338,0.158 0.547,0.423 0.625,0.795 0.079,0.372 0.119,0.716 0.119,1.032 0,1.037 -0.333,1.888 -0.998,2.553 -0.665,0.665 -1.787,0.998 -3.365,0.998 -0.699,0 -1.342,-0.062 -1.929,-0.186 -0.586,-0.124 -1.098,-0.339 -1.539,-0.643 -0.439,-0.304 -0.8,-0.71 -1.082,-1.217 -0.282,-0.508 -0.468,-1.145 -0.557,-1.911 h -2.064 c 0.067,1.037 0.305,1.922 0.71,2.655 0.406,0.733 0.931,1.33 1.573,1.793 0.643,0.462 1.387,0.8 2.233,1.014 0.845,0.215 1.741,0.322 2.688,0.322 0.88,0 1.708,-0.096 2.487,-0.288 0.778,-0.191 1.455,-0.496 2.029,-0.913 0.575,-0.417 1.026,-0.975 1.353,-1.674 0.327,-0.699 0.491,-1.556 0.491,-2.571 v -9.539 c 0,-0.789 0.14,-1.29 0.422,-1.505 0.283,-0.214 0.852,-0.163 1.708,0.152 V -8.76 c -0.158,-0.046 -0.388,-0.113 -0.693,-0.203 -0.305,-0.091 -0.603,-0.136 -0.896,-0.136 -0.316,0 -0.621,0.034 -0.913,0.101 -0.338,0.046 -0.609,0.153 -0.812,0.322 -0.203,0.169 -0.367,0.372 -0.49,0.609 -0.125,0.236 -0.209,0.496 -0.254,0.778 -0.045,0.282 -0.069,0.581 -0.069,0.896 -0.856,-0.947 -1.836,-1.669 -2.942,-2.165 -1.104,-0.496 -2.3,-0.744 -3.585,-0.744 -0.766,0 -1.506,0.102 -2.216,0.304 -0.71,0.204 -1.336,0.519 -1.877,0.948 -0.541,0.428 -0.969,0.953 -1.285,1.572 -0.316,0.621 -0.474,1.359 -0.474,2.216 0,2.977 2.041,4.736 6.123,5.277 z m 12.317,-4.736 c 0.316,-1.51 0.885,-2.576 1.708,-3.196 0.823,-0.62 2.002,-0.93 3.535,-0.93 0.744,0 1.387,0.09 1.928,0.27 0.541,0.181 0.986,0.423 1.336,0.727 0.349,0.305 0.615,0.649 0.795,1.033 0.18,0.383 0.27,0.789 0.27,1.217 0,0.857 -0.275,1.494 -0.828,1.911 -0.553,0.417 -1.246,0.744 -2.08,0.981 -0.835,0.237 -1.737,0.44 -2.706,0.609 -0.97,0.169 -1.872,0.423 -2.706,0.761 -0.834,0.338 -1.529,0.823 -2.08,1.454 -0.553,0.632 -0.83,1.522 -0.83,2.673 0,1.465 0.536,2.666 1.607,3.602 1.071,0.936 2.588,1.404 4.55,1.404 1.893,0 3.433,-0.423 4.617,-1.269 1.183,-0.845 1.899,-2.26 2.147,-4.245 h -2.062 c -0.181,1.353 -0.694,2.306 -1.54,2.858 -0.845,0.553 -1.911,0.829 -3.196,0.829 -1.286,0 -2.266,-0.276 -2.943,-0.829 -0.677,-0.552 -1.014,-1.28 -1.014,-2.181 0,-0.789 0.276,-1.392 0.828,-1.81 0.552,-0.417 1.246,-0.755 2.081,-1.015 0.834,-0.259 1.736,-0.49 2.706,-0.693 0.969,-0.203 1.871,-0.49 2.705,-0.863 0.835,-0.371 1.528,-0.873 2.081,-1.505 0.552,-0.631 0.828,-1.511 0.828,-2.638 0,-0.834 -0.18,-1.573 -0.541,-2.216 -0.36,-0.642 -0.856,-1.178 -1.488,-1.606 -0.632,-0.429 -1.381,-0.75 -2.249,-0.964 -0.868,-0.215 -1.822,-0.322 -2.859,-0.322 -1.037,0 -1.956,0.153 -2.757,0.457 -0.8,0.304 -1.482,0.727 -2.046,1.268 -0.564,0.541 -1.003,1.173 -1.319,1.894 -0.315,0.722 -0.496,1.5 -0.542,2.334 z" /></g><path
           id="path28"
           style="fill:#918e8d;fill-opacity:1;fill-rule:nonzero;stroke:none"
           d="M 70.37,59.374 H 72.4 V 35.02 H 70.37 Z M 89.418,44.22 c -0.857,-0.361 -1.726,-0.597 -2.605,-0.71 -0.879,-0.113 -1.758,-0.203 -2.638,-0.271 -1.556,-0.113 -2.768,-0.462 -3.636,-1.048 -0.868,-0.587 -1.303,-1.477 -1.303,-2.672 0,-0.541 0.108,-1.01 0.322,-1.404 0.214,-0.395 0.496,-0.721 0.845,-0.981 0.35,-0.259 0.756,-0.451 1.218,-0.575 0.462,-0.124 0.931,-0.186 1.403,-0.186 0.813,0 1.602,0.102 2.369,0.304 0.766,0.203 1.449,0.513 2.045,0.93 0.599,0.418 1.078,0.948 1.439,1.59 0.36,0.643 0.541,1.404 0.541,2.283 z m -3.417,1.015 c 0.384,0.045 0.841,0.113 1.37,0.203 0.53,0.09 0.964,0.214 1.303,0.372 0.338,0.158 0.547,0.423 0.625,0.795 0.079,0.372 0.119,0.716 0.119,1.032 0,1.037 -0.333,1.888 -0.998,2.553 -0.665,0.665 -1.787,0.998 -3.365,0.998 -0.7,0 -1.342,-0.062 -1.929,-0.186 -0.586,-0.124 -1.099,-0.338 -1.539,-0.643 -0.44,-0.304 -0.8,-0.71 -1.082,-1.217 -0.282,-0.508 -0.468,-1.145 -0.558,-1.911 h -2.063 c 0.067,1.037 0.304,1.922 0.71,2.655 0.406,0.733 0.93,1.33 1.573,1.793 0.643,0.462 1.387,0.8 2.232,1.014 0.846,0.215 1.742,0.322 2.689,0.322 0.88,0 1.708,-0.096 2.486,-0.288 0.779,-0.191 1.455,-0.496 2.03,-0.913 0.575,-0.417 1.026,-0.975 1.353,-1.674 0.327,-0.699 0.49,-1.556 0.49,-2.571 V 38.03 c 0,-0.789 0.141,-1.29 0.423,-1.505 0.282,-0.214 0.852,-0.163 1.708,0.152 V 35.088 C 93.42,35.042 93.189,34.975 92.885,34.885 92.58,34.794 92.281,34.75 91.988,34.75 c -0.315,0 -0.62,0.033 -0.913,0.101 -0.338,0.045 -0.609,0.152 -0.811,0.321 -0.203,0.169 -0.368,0.372 -0.492,0.609 -0.124,0.237 -0.208,0.496 -0.252,0.778 -0.045,0.282 -0.069,0.581 -0.069,0.896 -0.856,-0.947 -1.838,-1.668 -2.942,-2.164 -1.105,-0.497 -2.3,-0.745 -3.585,-0.745 -0.767,0 -1.506,0.102 -2.216,0.305 -0.71,0.203 -1.336,0.519 -1.877,0.947 -0.542,0.429 -0.97,0.953 -1.285,1.573 -0.317,0.62 -0.475,1.358 -0.475,2.215 0,2.977 2.041,4.736 6.123,5.277 z m 32.573,1.793 c -0.36,1.308 -0.98,2.328 -1.86,3.061 -0.879,0.733 -1.995,1.099 -3.349,1.099 -1.037,0 -1.927,-0.214 -2.672,-0.643 -0.744,-0.428 -1.352,-0.997 -1.826,-1.708 -0.473,-0.71 -0.823,-1.51 -1.049,-2.401 -0.225,-0.891 -0.338,-1.787 -0.338,-2.689 0,-0.925 0.107,-1.827 0.322,-2.706 0.214,-0.879 0.557,-1.669 1.031,-2.368 0.474,-0.699 1.083,-1.257 1.827,-1.674 0.744,-0.417 1.646,-0.626 2.705,-0.626 1.512,0 2.724,0.417 3.637,1.252 0.913,0.833 1.494,1.984 1.742,3.45 h 2.164 c -0.179,-0.97 -0.468,-1.855 -0.862,-2.656 -0.395,-0.8 -0.901,-1.488 -1.522,-2.063 -0.621,-0.575 -1.359,-1.02 -2.215,-1.336 -0.858,-0.316 -1.838,-0.474 -2.944,-0.474 -1.397,0 -2.603,0.237 -3.619,0.711 -1.015,0.473 -1.849,1.121 -2.503,1.945 -0.653,0.823 -1.139,1.798 -1.454,2.925 -0.315,1.128 -0.474,2.334 -0.474,3.62 0,1.217 0.175,2.384 0.525,3.501 0.349,1.116 0.862,2.102 1.539,2.959 0.677,0.857 1.517,1.54 2.519,2.047 1.004,0.507 2.16,0.761 3.467,0.761 2.031,0 3.671,-0.485 4.922,-1.455 1.252,-0.969 2.035,-2.48 2.351,-4.532 z m 19.691,-3.248 c 0,1.038 -0.114,2.008 -0.338,2.909 -0.226,0.902 -0.575,1.686 -1.049,2.352 -0.474,0.665 -1.083,1.189 -1.826,1.572 -0.744,0.384 -1.658,0.575 -2.74,0.575 -1.06,0 -1.968,-0.209 -2.723,-0.625 -0.756,-0.417 -1.37,-0.97 -1.844,-1.658 -0.474,-0.688 -0.823,-1.477 -1.049,-2.367 -0.225,-0.892 -0.338,-1.81 -0.338,-2.758 0,-1.082 0.13,-2.08 0.389,-2.993 0.26,-0.913 0.638,-1.697 1.134,-2.35 0.496,-0.655 1.116,-1.162 1.86,-1.523 0.744,-0.361 1.601,-0.541 2.571,-0.541 1.059,0 1.967,0.209 2.722,0.626 0.756,0.417 1.37,0.975 1.844,1.674 0.474,0.699 0.823,1.489 1.049,2.368 0.224,0.879 0.338,1.792 0.338,2.739 m -5.953,-9.234 c -1.128,0.023 -2.182,0.226 -3.163,0.609 -0.981,0.384 -1.837,0.959 -2.571,1.725 -0.732,0.767 -1.313,1.725 -1.742,2.875 -0.428,1.151 -0.643,2.492 -0.643,4.025 0,1.286 0.169,2.487 0.508,3.603 0.338,1.116 0.846,2.092 1.522,2.926 0.676,0.834 1.522,1.494 2.537,1.979 1.014,0.484 2.199,0.727 3.552,0.727 1.375,0 2.57,-0.243 3.584,-0.727 1.016,-0.485 1.861,-1.139 2.538,-1.962 0.676,-0.824 1.178,-1.799 1.505,-2.926 0.327,-1.128 0.491,-2.334 0.491,-3.62 0,-1.398 -0.192,-2.66 -0.576,-3.788 -0.383,-1.127 -0.93,-2.097 -1.64,-2.909 -0.71,-0.812 -1.568,-1.437 -2.57,-1.877 -1.004,-0.44 -2.115,-0.66 -3.332,-0.66 m 13.973,0.474 h -2.029 v 17.521 h 2.029 v -2.638 h 0.068 c 0.518,1.014 1.262,1.787 2.232,2.317 0.97,0.53 2.029,0.795 3.18,0.795 0.811,0 1.499,-0.091 2.063,-0.271 0.564,-0.181 1.043,-0.423 1.438,-0.727 0.394,-0.305 0.721,-0.66 0.98,-1.065 0.26,-0.407 0.48,-0.847 0.66,-1.32 0.586,1.15 1.369,2.002 2.351,2.554 0.98,0.552 2.102,0.829 3.365,0.829 1.195,0 2.149,-0.198 2.858,-0.592 0.711,-0.395 1.258,-0.914 1.641,-1.556 0.384,-0.643 0.637,-1.381 0.761,-2.216 0.125,-0.834 0.186,-1.691 0.186,-2.57 V 35.02 h -2.029 v 12.109 c 0,1.263 -0.266,2.255 -0.795,2.976 -0.53,0.723 -1.516,1.083 -2.96,1.083 -0.744,0 -1.46,-0.163 -2.147,-0.49 -0.689,-0.327 -1.291,-0.829 -1.811,-1.506 -0.224,-0.293 -0.411,-0.637 -0.557,-1.031 -0.147,-0.395 -0.265,-0.807 -0.356,-1.235 -0.09,-0.428 -0.151,-0.857 -0.185,-1.285 -0.035,-0.429 -0.051,-0.823 -0.051,-1.184 V 35.02 h -2.03 v 12.109 c 0,1.263 -0.265,2.255 -0.794,2.976 -0.531,0.723 -1.517,1.083 -2.96,1.083 -0.745,0 -1.46,-0.163 -2.148,-0.49 -0.688,-0.327 -1.291,-0.829 -1.809,-1.506 -0.226,-0.293 -0.413,-0.637 -0.559,-1.031 -0.147,-0.395 -0.265,-0.807 -0.356,-1.235 -0.089,-0.428 -0.151,-0.857 -0.185,-1.285 -0.034,-0.429 -0.051,-0.823 -0.051,-1.184 z m 29.06,8.693 c 0,-0.992 0.135,-1.934 0.406,-2.824 0.27,-0.891 0.659,-1.669 1.167,-2.334 0.507,-0.665 1.127,-1.196 1.86,-1.59 0.733,-0.395 1.562,-0.592 2.486,-0.592 1.038,0 1.945,0.209 2.723,0.626 0.778,0.417 1.415,0.986 1.911,1.708 0.497,0.721 0.857,1.562 1.082,2.52 0.226,0.958 0.316,1.99 0.271,3.095 0,1.105 -0.152,2.08 -0.457,2.926 -0.304,0.845 -0.727,1.561 -1.269,2.148 -0.541,0.586 -1.171,1.031 -1.893,1.335 -0.722,0.305 -1.511,0.457 -2.368,0.457 -0.947,0 -1.792,-0.191 -2.536,-0.575 -0.745,-0.383 -1.365,-0.907 -1.861,-1.572 -0.496,-0.666 -0.874,-1.455 -1.134,-2.368 -0.258,-0.914 -0.388,-1.9 -0.388,-2.96 m 0,-15.593 h -2.03 v 24.421 h 2.03 v -3.078 h 0.067 c 0.293,0.564 0.671,1.071 1.134,1.522 0.462,0.452 0.97,0.823 1.521,1.117 0.553,0.293 1.122,0.518 1.708,0.676 0.587,0.158 1.162,0.237 1.726,0.237 1.42,0 2.627,-0.237 3.619,-0.71 0.992,-0.474 1.81,-1.122 2.452,-1.946 0.643,-0.822 1.111,-1.798 1.405,-2.925 0.293,-1.128 0.439,-2.334 0.439,-3.62 0,-1.217 -0.158,-2.39 -0.474,-3.517 -0.315,-1.128 -0.795,-2.114 -1.437,-2.96 -0.643,-0.846 -1.455,-1.522 -2.436,-2.029 -0.98,-0.508 -2.136,-0.762 -3.466,-0.762 -1.241,0 -2.43,0.277 -3.569,0.829 -1.139,0.553 -2.035,1.37 -2.689,2.453 z m 30.243,16.1 c -0.857,-0.361 -1.725,-0.597 -2.605,-0.71 -0.879,-0.113 -1.758,-0.203 -2.638,-0.271 -1.556,-0.113 -2.768,-0.462 -3.636,-1.048 -0.868,-0.587 -1.302,-1.477 -1.302,-2.672 0,-0.541 0.107,-1.01 0.322,-1.404 0.213,-0.395 0.496,-0.721 0.845,-0.981 0.35,-0.259 0.755,-0.451 1.217,-0.575 0.463,-0.124 0.931,-0.186 1.404,-0.186 0.812,0 1.601,0.102 2.367,0.304 0.768,0.203 1.45,0.513 2.047,0.93 0.598,0.418 1.078,0.948 1.438,1.59 0.361,0.643 0.541,1.404 0.541,2.283 z m -3.416,1.015 c 0.383,0.045 0.84,0.113 1.37,0.203 0.529,0.09 0.964,0.214 1.302,0.372 0.339,0.158 0.547,0.423 0.626,0.795 0.079,0.372 0.118,0.716 0.118,1.032 0,1.037 -0.332,1.888 -0.998,2.553 -0.665,0.665 -1.787,0.998 -3.365,0.998 -0.7,0 -1.342,-0.062 -1.928,-0.186 -0.587,-0.124 -1.1,-0.338 -1.539,-0.643 -0.44,-0.304 -0.801,-0.71 -1.082,-1.217 -0.282,-0.508 -0.469,-1.145 -0.559,-1.911 h -2.063 c 0.067,1.037 0.304,1.922 0.711,2.655 0.405,0.733 0.929,1.33 1.572,1.793 0.642,0.462 1.387,0.8 2.232,1.014 0.846,0.215 1.743,0.322 2.69,0.322 0.879,0 1.708,-0.096 2.486,-0.288 0.777,-0.191 1.454,-0.496 2.029,-0.913 0.576,-0.417 1.026,-0.975 1.353,-1.674 0.327,-0.699 0.49,-1.556 0.49,-2.571 V 38.03 c 0,-0.789 0.142,-1.29 0.423,-1.505 0.282,-0.214 0.852,-0.163 1.708,0.152 v -1.589 c -0.157,-0.046 -0.389,-0.113 -0.693,-0.203 -0.304,-0.091 -0.603,-0.135 -0.896,-0.135 -0.316,0 -0.621,0.033 -0.914,0.101 -0.338,0.045 -0.608,0.152 -0.811,0.321 -0.204,0.169 -0.367,0.372 -0.491,0.609 -0.124,0.237 -0.209,0.496 -0.254,0.778 -0.044,0.282 -0.067,0.581 -0.067,0.896 -0.857,-0.947 -1.838,-1.668 -2.943,-2.164 -1.105,-0.497 -2.3,-0.745 -3.585,-0.745 -0.767,0 -1.505,0.102 -2.216,0.305 -0.71,0.203 -1.336,0.519 -1.877,0.947 -0.541,0.429 -0.97,0.953 -1.285,1.573 -0.316,0.62 -0.474,1.358 -0.474,2.215 0,2.977 2.041,4.736 6.122,5.277 z m 13.026,9.606 c 0.045,0.406 0.124,0.773 0.237,1.099 0.113,0.328 0.259,0.626 0.44,0.897 0.338,0.474 0.772,0.829 1.302,1.065 0.53,0.237 1.089,0.288 1.675,0.153 0.315,-0.068 0.653,-0.18 1.014,-0.339 0.362,-0.157 0.727,-0.321 1.1,-0.49 0.371,-0.169 0.732,-0.316 1.082,-0.44 0.349,-0.124 0.671,-0.186 0.964,-0.186 0.496,0 0.845,0.18 1.049,0.541 0.203,0.361 0.349,0.744 0.439,1.151 h 1.285 c -0.022,-0.226 -0.061,-0.446 -0.118,-0.66 -0.057,-0.215 -0.107,-0.423 -0.152,-0.626 -0.248,-0.541 -0.564,-1.015 -0.948,-1.421 -0.382,-0.406 -0.901,-0.608 -1.555,-0.608 -0.474,0 -0.919,0.079 -1.336,0.236 -0.417,0.158 -0.829,0.333 -1.235,0.525 -0.406,0.191 -0.806,0.366 -1.201,0.524 -0.394,0.158 -0.783,0.237 -1.167,0.237 -0.518,0 -0.89,-0.169 -1.116,-0.508 -0.226,-0.338 -0.405,-0.721 -0.541,-1.15 z m 0.136,-19.821 h -2.03 v 17.521 h 2.03 v -2.436 c 0.812,0.857 1.651,1.557 2.52,2.098 0.868,0.541 1.911,0.812 3.128,0.812 1.082,0 2.086,-0.186 3.01,-0.558 0.925,-0.373 1.703,-1.02 2.334,-1.945 0.429,-0.632 0.683,-1.28 0.762,-1.945 0.079,-0.666 0.118,-1.359 0.118,-2.08 V 35.02 h -2.029 v 11.433 c 0,1.578 -0.35,2.762 -1.049,3.551 -0.699,0.789 -1.86,1.184 -3.484,1.184 -0.631,0 -1.207,-0.096 -1.725,-0.287 -0.519,-0.192 -0.986,-0.446 -1.403,-0.761 -0.417,-0.316 -0.773,-0.677 -1.066,-1.083 -0.293,-0.406 -0.518,-0.834 -0.677,-1.285 -0.203,-0.564 -0.327,-1.105 -0.372,-1.624 -0.045,-0.518 -0.067,-1.082 -0.067,-1.691 z m 15.834,19.416 3.754,4.701 h 2.604 l -4.633,-4.701 z m 1.521,-1.895 h 2.029 V 35.02 h -2.029 z m 19.15,-8.321 c -0.858,-0.361 -1.726,-0.597 -2.605,-0.71 -0.88,-0.113 -1.759,-0.203 -2.638,-0.271 -1.556,-0.113 -2.768,-0.462 -3.637,-1.048 -0.868,-0.587 -1.302,-1.477 -1.302,-2.672 0,-0.541 0.108,-1.01 0.322,-1.404 0.213,-0.395 0.496,-0.721 0.845,-0.981 0.35,-0.259 0.756,-0.451 1.218,-0.575 0.462,-0.124 0.93,-0.186 1.403,-0.186 0.812,0 1.602,0.102 2.368,0.304 0.767,0.203 1.449,0.513 2.046,0.93 0.598,0.418 1.078,0.948 1.438,1.59 0.361,0.643 0.542,1.404 0.542,2.283 z m -3.417,1.015 c 0.384,0.045 0.84,0.113 1.37,0.203 0.53,0.09 0.964,0.214 1.303,0.372 0.338,0.158 0.547,0.423 0.625,0.795 0.079,0.372 0.119,0.716 0.119,1.032 0,1.037 -0.333,1.888 -0.998,2.553 -0.665,0.665 -1.787,0.998 -3.366,0.998 -0.699,0 -1.341,-0.062 -1.928,-0.186 -0.586,-0.124 -1.1,-0.338 -1.539,-0.643 -0.44,-0.304 -0.801,-0.71 -1.082,-1.217 -0.282,-0.508 -0.468,-1.145 -0.559,-1.911 h -2.062 c 0.067,1.037 0.303,1.922 0.71,2.655 0.406,0.733 0.929,1.33 1.572,1.793 0.643,0.462 1.388,0.8 2.233,1.014 0.845,0.215 1.742,0.322 2.689,0.322 0.88,0 1.708,-0.096 2.486,-0.288 0.777,-0.191 1.454,-0.496 2.029,-0.913 0.576,-0.417 1.027,-0.975 1.353,-1.674 0.327,-0.699 0.491,-1.556 0.491,-2.571 V 38.03 c 0,-0.789 0.141,-1.29 0.423,-1.505 0.281,-0.214 0.851,-0.163 1.708,0.152 v -1.589 c -0.158,-0.046 -0.389,-0.113 -0.693,-0.203 -0.305,-0.091 -0.604,-0.135 -0.897,-0.135 -0.315,0 -0.62,0.033 -0.913,0.101 -0.339,0.045 -0.609,0.152 -0.812,0.321 -0.203,0.169 -0.367,0.372 -0.491,0.609 -0.124,0.237 -0.208,0.496 -0.253,0.778 -0.045,0.282 -0.068,0.581 -0.068,0.896 -0.856,-0.947 -1.838,-1.668 -2.942,-2.164 -1.106,-0.497 -2.3,-0.745 -3.586,-0.745 -0.767,0 -1.505,0.102 -2.215,0.305 -0.711,0.203 -1.337,0.519 -1.878,0.947 -0.541,0.429 -0.97,0.953 -1.285,1.573 -0.316,0.62 -0.474,1.358 -0.474,2.215 0,2.977 2.041,4.736 6.122,5.277 z m 33.689,-1.387 c 0,0.992 -0.134,1.934 -0.405,2.825 -0.271,0.89 -0.66,1.668 -1.167,2.333 -0.508,0.666 -1.128,1.196 -1.86,1.59 -0.734,0.395 -1.563,0.592 -2.487,0.592 -1.059,0 -1.973,-0.209 -2.74,-0.625 -0.766,-0.417 -1.397,-0.987 -1.893,-1.709 -0.497,-0.721 -0.858,-1.562 -1.083,-2.52 -0.226,-0.958 -0.316,-1.99 -0.271,-3.095 0,-1.105 0.152,-2.08 0.457,-2.926 0.305,-0.845 0.728,-1.561 1.269,-2.147 0.541,-0.586 1.172,-1.032 1.893,-1.336 0.722,-0.305 1.511,-0.457 2.368,-0.457 0.948,0 1.793,0.191 2.537,0.575 0.744,0.384 1.365,0.907 1.86,1.573 0.497,0.665 0.874,1.454 1.134,2.368 0.258,0.913 0.388,1.899 0.388,2.959 m 0,15.526 h 2.03 V 35.02 h -2.03 v 3.078 h -0.067 c -0.293,-0.586 -0.671,-1.099 -1.133,-1.539 -0.463,-0.44 -0.97,-0.806 -1.522,-1.1 -0.553,-0.292 -1.122,-0.518 -1.708,-0.676 -0.586,-0.158 -1.161,-0.237 -1.726,-0.237 -1.42,0 -2.627,0.237 -3.619,0.711 -0.992,0.473 -1.81,1.121 -2.452,1.945 -0.643,0.823 -1.111,1.798 -1.404,2.925 -0.293,1.128 -0.44,2.334 -0.44,3.62 0,1.217 0.158,2.39 0.474,3.518 0.316,1.127 0.795,2.113 1.437,2.959 0.643,0.846 1.455,1.523 2.436,2.03 0.981,0.507 2.136,0.761 3.467,0.761 1.241,0 2.429,-0.277 3.568,-0.829 1.14,-0.552 2.036,-1.37 2.689,-2.452 z m 20.198,-14.376 c 0,0.857 -0.119,1.663 -0.355,2.419 -0.237,0.755 -0.587,1.409 -1.049,1.961 -0.462,0.553 -1.043,0.993 -1.742,1.32 -0.699,0.327 -1.5,0.49 -2.401,0.49 -0.903,0 -1.698,-0.169 -2.385,-0.507 -0.688,-0.338 -1.274,-0.789 -1.759,-1.353 -0.485,-0.564 -0.874,-1.218 -1.167,-1.962 -0.293,-0.744 -0.484,-1.533 -0.575,-2.368 z m -11.433,-1.691 c 0,-0.947 0.124,-1.843 0.372,-2.689 0.248,-0.846 0.614,-1.578 1.1,-2.199 0.485,-0.62 1.098,-1.116 1.842,-1.488 0.746,-0.372 1.602,-0.558 2.572,-0.558 1.33,0 2.468,0.35 3.416,1.048 0.947,0.7 1.579,1.692 1.894,2.977 h 2.266 c -0.248,-0.835 -0.574,-1.606 -0.981,-2.317 -0.406,-0.71 -0.913,-1.33 -1.522,-1.86 -0.608,-0.53 -1.33,-0.942 -2.164,-1.235 -0.835,-0.293 -1.805,-0.44 -2.909,-0.44 -1.399,0 -2.605,0.237 -3.619,0.711 -1.015,0.473 -1.85,1.121 -2.503,1.945 -0.655,0.823 -1.139,1.793 -1.455,2.909 -0.316,1.116 -0.473,2.317 -0.473,3.602 0,1.285 0.185,2.492 0.558,3.62 0.372,1.126 0.902,2.113 1.589,2.959 0.688,0.846 1.528,1.511 2.52,1.996 0.992,0.484 2.12,0.727 3.383,0.727 2.413,0 4.306,-0.829 5.682,-2.486 1.376,-1.658 2.052,-4.065 2.03,-7.222 z m 27.263,16.067 h 2.029 V 35.02 h -2.029 z M 337.187,44.22 c -0.858,-0.361 -1.726,-0.597 -2.605,-0.71 -0.88,-0.113 -1.759,-0.203 -2.639,-0.271 -1.555,-0.113 -2.767,-0.462 -3.635,-1.048 -0.87,-0.587 -1.303,-1.477 -1.303,-2.672 0,-0.541 0.107,-1.01 0.321,-1.404 0.214,-0.395 0.496,-0.721 0.846,-0.981 0.349,-0.259 0.756,-0.451 1.218,-0.575 0.462,-0.124 0.93,-0.186 1.403,-0.186 0.812,0 1.602,0.102 2.368,0.304 0.767,0.203 1.448,0.513 2.046,0.93 0.598,0.418 1.077,0.948 1.439,1.59 0.36,0.643 0.541,1.404 0.541,2.283 z m -3.417,1.015 c 0.383,0.045 0.839,0.113 1.37,0.203 0.53,0.09 0.964,0.214 1.302,0.372 0.338,0.158 0.547,0.423 0.625,0.795 0.079,0.372 0.12,0.716 0.12,1.032 0,1.037 -0.333,1.888 -0.999,2.553 -0.665,0.665 -1.787,0.998 -3.365,0.998 -0.699,0 -1.342,-0.062 -1.928,-0.186 -0.586,-0.124 -1.099,-0.338 -1.54,-0.643 -0.439,-0.304 -0.799,-0.71 -1.082,-1.217 -0.282,-0.508 -0.467,-1.145 -0.557,-1.911 h -2.064 c 0.068,1.037 0.304,1.922 0.71,2.655 0.407,0.733 0.93,1.33 1.573,1.793 0.643,0.462 1.387,0.8 2.233,1.014 0.845,0.215 1.741,0.322 2.688,0.322 0.88,0 1.708,-0.096 2.487,-0.288 0.778,-0.191 1.454,-0.496 2.029,-0.913 0.575,-0.417 1.026,-0.975 1.354,-1.674 0.326,-0.699 0.49,-1.556 0.49,-2.571 V 38.03 c 0,-0.789 0.14,-1.29 0.423,-1.505 0.282,-0.214 0.85,-0.163 1.708,0.152 v -1.589 c -0.159,-0.046 -0.389,-0.113 -0.694,-0.203 -0.304,-0.091 -0.603,-0.135 -0.896,-0.135 -0.316,0 -0.62,0.033 -0.913,0.101 -0.338,0.045 -0.61,0.152 -0.812,0.321 -0.203,0.169 -0.367,0.372 -0.491,0.609 -0.124,0.237 -0.208,0.496 -0.253,0.778 -0.046,0.282 -0.068,0.581 -0.068,0.896 -0.857,-0.947 -1.838,-1.668 -2.943,-2.164 -1.105,-0.497 -2.299,-0.745 -3.586,-0.745 -0.766,0 -1.504,0.102 -2.214,0.305 -0.71,0.203 -1.336,0.519 -1.878,0.947 -0.541,0.429 -0.97,0.953 -1.286,1.573 -0.315,0.62 -0.473,1.358 -0.473,2.215 0,2.977 2.041,4.736 6.123,5.277 z M 346.086,40.5 c 0.316,-1.511 0.885,-2.577 1.708,-3.197 0.823,-0.62 2.002,-0.93 3.535,-0.93 0.744,0 1.387,0.09 1.928,0.271 0.541,0.18 0.986,0.422 1.336,0.727 0.349,0.304 0.614,0.648 0.795,1.032 0.18,0.383 0.27,0.789 0.27,1.217 0,0.857 -0.275,1.494 -0.828,1.911 -0.553,0.417 -1.246,0.744 -2.08,0.981 -0.835,0.237 -1.736,0.44 -2.706,0.609 -0.97,0.169 -1.872,0.423 -2.706,0.761 -0.835,0.338 -1.528,0.823 -2.081,1.454 -0.552,0.632 -0.828,1.522 -0.828,2.673 0,1.466 0.535,2.666 1.606,3.602 1.071,0.936 2.588,1.404 4.55,1.404 1.894,0 3.433,-0.423 4.617,-1.268 1.184,-0.846 1.9,-2.261 2.148,-4.246 h -2.064 c -0.181,1.353 -0.693,2.306 -1.539,2.858 -0.846,0.553 -1.911,0.829 -3.196,0.829 -1.285,0 -2.267,-0.276 -2.943,-0.829 -0.676,-0.552 -1.014,-1.279 -1.014,-2.181 0,-0.789 0.276,-1.392 0.828,-1.81 0.553,-0.417 1.246,-0.755 2.081,-1.014 0.834,-0.26 1.735,-0.491 2.705,-0.694 0.97,-0.203 1.872,-0.491 2.706,-0.863 0.835,-0.371 1.528,-0.873 2.081,-1.505 0.552,-0.631 0.828,-1.511 0.828,-2.638 0,-0.835 -0.18,-1.573 -0.541,-2.216 -0.361,-0.642 -0.857,-1.178 -1.488,-1.606 -0.632,-0.429 -1.381,-0.75 -2.25,-0.964 -0.867,-0.215 -1.82,-0.322 -2.857,-0.322 -1.038,0 -1.957,0.153 -2.757,0.457 -0.801,0.305 -1.483,0.727 -2.047,1.268 -0.564,0.542 -1.003,1.173 -1.32,1.895 -0.315,0.721 -0.496,1.499 -0.541,2.334 z" /></g></g></g></svg>